<?xml version="1.0" encoding="UTF-8"?>
<svg width="1200" height="800" xmlns="http://www.w3.org/2000/svg">
  <defs>
    <style>
      .title { font-family: Arial, sans-serif; font-size: 24px; font-weight: bold; fill: #2c3e50; }
      .subtitle { font-family: Arial, sans-serif; font-size: 16px; font-weight: bold; fill: #34495e; }
      .text { font-family: Arial, sans-serif; font-size: 12px; fill: #2c3e50; }
      .frontend { fill: #3498db; stroke: #2980b9; stroke-width: 2; }
      .backend { fill: #e74c3c; stroke: #c0392b; stroke-width: 2; }
      .ml { fill: #9b59b6; stroke: #8e44ad; stroke-width: 2; }
      .database { fill: #27ae60; stroke: #229954; stroke-width: 2; }
      .colab { fill: #f39c12; stroke: #e67e22; stroke-width: 2; }
      .arrow { stroke: #2c3e50; stroke-width: 2; fill: none; marker-end: url(#arrowhead); }
      .data-flow { stroke: #e74c3c; stroke-width: 3; fill: none; marker-end: url(#arrowhead-red); }
    </style>
    <marker id="arrowhead" markerWidth="10" markerHeight="7" refX="9" refY="3.5" orient="auto">
      <polygon points="0 0, 10 3.5, 0 7" fill="#2c3e50" />
    </marker>
    <marker id="arrowhead-red" markerWidth="10" markerHeight="7" refX="9" refY="3.5" orient="auto">
      <polygon points="0 0, 10 3.5, 0 7" fill="#e74c3c" />
    </marker>
  </defs>
  
  <!-- Title -->
  <text x="600" y="30" text-anchor="middle" class="title">MANVUE AI Integration System</text>
  
  <!-- Frontend Layer -->
  <rect x="50" y="60" width="1100" height="120" rx="10" class="frontend" opacity="0.3"/>
  <text x="600" y="80" text-anchor="middle" class="subtitle">Frontend Layer</text>
  
  <rect x="80" y="100" width="150" height="60" rx="5" class="frontend"/>
  <text x="155" y="120" text-anchor="middle" class="text">index.html</text>
  <text x="155" y="135" text-anchor="middle" class="text">Main App</text>
  <text x="155" y="150" text-anchor="middle" class="text">Visual Search Modal</text>
  
  <rect x="250" y="100" width="150" height="60" rx="5" class="frontend"/>
  <text x="325" y="120" text-anchor="middle" class="text">Enhanced Chatbot</text>
  <text x="325" y="135" text-anchor="middle" class="text">enhanced-chatbot.js</text>
  <text x="325" y="150" text-anchor="middle" class="text">Voice Input</text>
  
  <rect x="420" y="100" width="150" height="60" rx="5" class="frontend"/>
  <text x="495" y="120" text-anchor="middle" class="text">Voice Commands</text>
  <text x="495" y="135" text-anchor="middle" class="text">voice-commands.html</text>
  <text x="495" y="150" text-anchor="middle" class="text">Hands-free Navigation</text>
  
  <rect x="590" y="100" width="150" height="60" rx="5" class="frontend"/>
  <text x="665" y="120" text-anchor="middle" class="text">3D Try-On</text>
  <text x="665" y="135" text-anchor="middle" class="text">VR Button</text>
  <text x="665" y="150" text-anchor="middle" class="text">Virtual Fitting</text>
  
  <rect x="760" y="100" width="150" height="60" rx="5" class="frontend"/>
  <text x="835" y="120" text-anchor="middle" class="text">Visual Search</text>
  <text x="835" y="135" text-anchor="middle" class="text">Camera/Upload</text>
  <text x="835" y="150" text-anchor="middle" class="text">Image Analysis</text>
  
  <!-- API Layer -->
  <rect x="50" y="220" width="1100" height="120" rx="10" class="backend" opacity="0.3"/>
  <text x="600" y="240" text-anchor="middle" class="subtitle">API & Services Layer</text>
  
  <rect x="80" y="260" width="150" height="60" rx="5" class="backend"/>
  <text x="155" y="280" text-anchor="middle" class="text">Visual Search Service</text>
  <text x="155" y="295" text-anchor="middle" class="text">visual_search_service.py</text>
  <text x="155" y="310" text-anchor="middle" class="text">Image Processing</text>
  
  <rect x="250" y="260" width="150" height="60" rx="5" class="backend"/>
  <text x="325" y="280" text-anchor="middle" class="text">Product Service</text>
  <text x="325" y="295" text-anchor="middle" class="text">product_service.py</text>
  <text x="325" y="310" text-anchor="middle" class="text">CRUD Operations</text>
  
  <rect x="420" y="260" width="150" height="60" rx="5" class="backend"/>
  <text x="495" y="280" text-anchor="middle" class="text">Enhanced ML Service</text>
  <text x="495" y="295" text-anchor="middle" class="text">enhanced_ml_service.py</text>
  <text x="495" y="310" text-anchor="middle" class="text">Style Analysis</text>
  
  <rect x="590" y="260" width="150" height="60" rx="5" class="backend"/>
  <text x="665" y="280" text-anchor="middle" class="text">ML API Server</text>
  <text x="665" y="295" text-anchor="middle" class="text">ml_server.py</text>
  <text x="665" y="310" text-anchor="middle" class="text">FastAPI Endpoints</text>
  
  <rect x="760" y="260" width="150" height="60" rx="5" class="backend"/>
  <text x="835" y="280" text-anchor="middle" class="text">Auth Service</text>
  <text x="835" y="295" text-anchor="middle" class="text">auth_service.py</text>
  <text x="835" y="310" text-anchor="middle" class="text">User Management</text>
  
  <!-- ML Layer -->
  <rect x="50" y="380" width="1100" height="120" rx="10" class="ml" opacity="0.3"/>
  <text x="600" y="400" text-anchor="middle" class="subtitle">AI/ML Layer</text>
  
  <rect x="80" y="420" width="150" height="60" rx="5" class="ml"/>
  <text x="155" y="440" text-anchor="middle" class="text">CLIP Model</text>
  <text x="155" y="455" text-anchor="middle" class="text">ml_model.py</text>
  <text x="155" y="470" text-anchor="middle" class="text">Image Embeddings</text>
  
  <rect x="250" y="420" width="150" height="60" rx="5" class="ml"/>
  <text x="325" y="440" text-anchor="middle" class="text">Text Embeddings</text>
  <text x="325" y="455" text-anchor="middle" class="text">CLIP Text Processing</text>
  <text x="325" y="470" text-anchor="middle" class="text">Similarity Search</text>
  
  <rect x="420" y="420" width="150" height="60" rx="5" class="ml"/>
  <text x="495" y="440" text-anchor="middle" class="text">Outfit Generation</text>
  <text x="495" y="455" text-anchor="middle" class="text">Style Rules Engine</text>
  <text x="495" y="470" text-anchor="middle" class="text">Recommendation Logic</text>
  
  <rect x="590" y="420" width="150" height="60" rx="5" class="ml"/>
  <text x="665" y="440" text-anchor="middle" class="text">Voice Processing</text>
  <text x="665" y="455" text-anchor="middle" class="text">Speech Recognition</text>
  <text x="665" y="470" text-anchor="middle" class="text">Command Parsing</text>
  
  <rect x="760" y="420" width="150" height="60" rx="5" class="ml"/>
  <text x="835" y="440" text-anchor="middle" class="text">Chatbot AI</text>
  <text x="835" y="455" text-anchor="middle" class="text">Natural Language</text>
  <text x="835" y="470" text-anchor="middle" class="text">Context Awareness</text>
  
  <!-- Database Layer -->
  <rect x="50" y="540" width="1100" height="120" rx="10" class="database" opacity="0.3"/>
  <text x="600" y="560" text-anchor="middle" class="subtitle">Database Layer</text>
  
  <rect x="80" y="580" width="150" height="60" rx="5" class="database"/>
  <text x="155" y="600" text-anchor="middle" class="text">MongoDB</text>
  <text x="155" y="615" text-anchor="middle" class="text">database.py</text>
  <text x="155" y="630" text-anchor="middle" class="text">Product Data</text>
  
  <rect x="250" y="580" width="150" height="60" rx="5" class="database"/>
  <text x="325" y="600" text-anchor="middle" class="text">GridFS</text>
  <text x="325" y="615" text-anchor="middle" class="text">Image Storage</text>
  <text x="325" y="630" text-anchor="middle" class="text">Binary Files</text>
  
  <rect x="420" y="580" width="150" height="60" rx="5" class="database"/>
  <text x="495" y="600" text-anchor="middle" class="text">Embeddings</text>
  <text x="495" y="615" text-anchor="middle" class="text">CLIP Vectors</text>
  <text x="495" y="630" text-anchor="middle" class="text">Similarity Index</text>
  
  <rect x="590" y="580" width="150" height="60" rx="5" class="database"/>
  <text x="665" y="600" text-anchor="middle" class="text">User Data</text>
  <text x="665" y="615" text-anchor="middle" class="text">Profiles</text>
  <text x="665" y="630" text-anchor="middle" class="text">Preferences</text>
  
  <rect x="760" y="580" width="150" height="60" rx="5" class="database"/>
  <text x="835" y="600" text-anchor="middle" class="text">Session Data</text>
  <text x="835" y="615" text-anchor="middle" class="text">Chat History</text>
  <text x="835" y="630" text-anchor="middle" class="text">Search Cache</text>
  
  <!-- Colab Integration -->
  <rect x="50" y="700" width="1100" height="80" rx="10" class="colab" opacity="0.3"/>
  <text x="600" y="720" text-anchor="middle" class="subtitle">Colab Integration Layer</text>
  
  <rect x="80" y="740" width="150" height="30" rx="5" class="colab"/>
  <text x="155" y="755" text-anchor="middle" class="text">colab_image_setup.py</text>
  
  <rect x="250" y="740" width="150" height="30" rx="5" class="colab"/>
  <text x="325" y="755" text-anchor="middle" class="text">generate_embeddings.py</text>
  
  <rect x="420" y="740" width="150" height="30" rx="5" class="colab"/>
  <text x="495" y="755" text-anchor="middle" class="text">colab_notebook.ipynb</text>
  
  <rect x="590" y="740" width="150" height="30" rx="5" class="colab"/>
  <text x="665" y="755" text-anchor="middle" class="text">Batch Processing</text>
  
  <!-- Data Flow Arrows -->
  <!-- Frontend to API -->
  <line x1="155" y1="160" x2="155" y2="260" class="data-flow"/>
  <line x1="325" y1="160" x2="325" y2="260" class="data-flow"/>
  <line x1="495" y1="160" x2="495" y2="260" class="data-flow"/>
  <line x1="835" y1="160" x2="835" y2="260" class="data-flow"/>
  
  <!-- API to ML -->
  <line x1="155" y1="320" x2="155" y2="420" class="data-flow"/>
  <line x1="325" y1="320" x2="325" y2="420" class="data-flow"/>
  <line x1="495" y1="320" x2="495" y2="420" class="data-flow"/>
  <line x1="665" y1="320" x2="665" y2="420" class="data-flow"/>
  
  <!-- ML to Database -->
  <line x1="155" y1="480" x2="155" y2="580" class="data-flow"/>
  <line x1="325" y1="480" x2="325" y2="580" class="data-flow"/>
  <line x1="495" y1="480" x2="495" y2="580" class="data-flow"/>
  <line x1="665" y1="480" x2="665" y2="580" class="data-flow"/>
  
  <!-- Colab to Database -->
  <line x1="155" y1="740" x2="155" y2="580" class="arrow"/>
  <line x1="325" y1="740" x2="325" y2="580" class="arrow"/>
  <line x1="495" y1="740" x2="495" y2="580" class="arrow"/>
  
  <!-- Cross-connections -->
  <line x1="230" y1="130" x2="250" y2="130" class="arrow"/>
  <line x1="400" y1="130" x2="420" y2="130" class="arrow"/>
  <line x1="570" y1="130" x2="590" y2="130" class="arrow"/>
  <line x1="740" y1="130" x2="760" y2="130" class="arrow"/>
  
  <line x1="230" y1="290" x2="250" y2="290" class="arrow"/>
  <line x1="400" y1="290" x2="420" y2="290" class="arrow"/>
  <line x1="570" y1="290" x2="590" y2="290" class="arrow"/>
  <line x1="740" y1="290" x2="760" y2="290" class="arrow"/>
  
  <line x1="230" y1="450" x2="250" y2="450" class="arrow"/>
  <line x1="400" y1="450" x2="420" y2="450" class="arrow"/>
  <line x1="570" y1="450" x2="590" y2="450" class="arrow"/>
  <line x1="740" y1="450" x2="760" y2="450" class="arrow"/>
  
  <line x1="230" y1="610" x2="250" y2="610" class="arrow"/>
  <line x1="400" y1="610" x2="420" y2="610" class="arrow"/>
  <line x1="570" y1="610" x2="590" y2="610" class="arrow"/>
  <line x1="740" y1="610" x2="760" y2="610" class="arrow"/>
  
  <!-- Legend -->
  <rect x="950" y="100" width="200" height="200" rx="10" fill="white" stroke="#2c3e50" stroke-width="2"/>
  <text x="1050" y="125" text-anchor="middle" class="subtitle">Legend</text>
  
  <rect x="970" y="140" width="20" height="15" class="frontend"/>
  <text x="1000" y="152" class="text">Frontend</text>
  
  <rect x="970" y="160" width="20" height="15" class="backend"/>
  <text x="1000" y="172" class="text">API/Services</text>
  
  <rect x="970" y="180" width="20" height="15" class="ml"/>
  <text x="1000" y="192" class="text">AI/ML</text>
  
  <rect x="970" y="200" width="20" height="15" class="database"/>
  <text x="1000" y="212" class="text">Database</text>
  
  <rect x="970" y="220" width="20" height="15" class="colab"/>
  <text x="1000" y="232" class="text">Colab Integration</text>
  
  <line x1="970" y1="250" x2="990" y2="250" class="data-flow"/>
  <text x="1000" y="255" class="text">Data Flow</text>
  
  <line x1="970" y1="270" x2="990" y2="270" class="arrow"/>
  <text x="1000" y="275" class="text">Integration</text>
  
  <!-- Key Features Box -->
  <rect x="950" y="320" width="200" height="180" rx="10" fill="#ecf0f1" stroke="#bdc3c7" stroke-width="2"/>
  <text x="1050" y="345" text-anchor="middle" class="subtitle">Key Features</text>
  
  <text x="970" y="370" class="text">• Visual Search with CLIP AI</text>
  <text x="970" y="385" class="text">• Voice Commands Integration</text>
  <text x="970" y="400" class="text">• Enhanced AI Chatbot</text>
  <text x="970" y="415" class="text">• 3D Virtual Try-On</text>
  <text x="970" y="430" class="text">• MongoDB GridFS Storage</text>
  <text x="970" y="445" class="text">• Colab Batch Processing</text>
  <text x="970" y="460" class="text">• Real-time Similarity Search</text>
  <text x="970" y="475" class="text">• Outfit Recommendations</text>
  <text x="970" y="490" class="text">• Style Analysis Engine</text>
</svg>
